<?xml version="1.0" encoding="UTF-8"?>
<svg id="Capa_1" data-name="Capa 1" xmlns="http://www.w3.org/2000/svg" viewBox="0 0 35 45">
  <defs>
    <style>
      .cls-1 {
        fill: #fff;
        stroke-width: 0px;
      }
    </style>
  </defs>
  <path class="cls-1" d="m31.45,33.63c-.48-.48-1.04-.84-1.65-1.13-1.68-.81-3.47-1.28-5.3-1.59-.65-.11-1.33.26-1.53.89-.24.78.19,1.56.93,1.74.37.09.75.14,1.12.22,1.41.33,2.81.66,4.06,1.44.47.29.49.8.02,1.1-.75.48-1.59.76-2.44,1.01-2.83.85-5.74,1.1-8.68,1.13-3.26.03-6.49-.2-9.64-1.13-.93-.28-1.86-.56-2.66-1.15-.29-.22-.3-.55-.01-.77.92-.69,2.06-.98,3.1-1.39.68-.27,1.4-.35,2.13-.43.85-.09,1.33-.81,1.16-1.63-.14-.7-.83-1.16-1.55-1.03-.66.13-1.33.26-1.98.42-1.15.27-2.26.67-3.33,1.18-.67.32-1.29.73-1.79,1.29-1.06,1.19-.92,2.97.23,4.08.8.77,1.77,1.28,2.8,1.65,1.88.68,3.81,1.06,5.78,1.31,1.02.13,2.04.18,3.06.17,1.8-.01,3.97-.04,5.33-.06,1.09-.02,2.17-.1,3.24-.26,1.46-.22,2.9-.54,4.3-1.01,1.12-.37,2.17-.87,3.06-1.66,1.35-1.2,1.5-3.1.23-4.39Z"/>
  <path class="cls-1" d="m12.11,26.29c.33,0,.67.03,1,0,.31-.03.35.1.35.37,0,2.54,0,5.07,0,7.61,0,.93.55,1.49,1.49,1.49,1.65,0,3.3,0,4.95,0,1.16,0,1.66-.5,1.66-1.66,0-2.5,0-5,0-7.5,0-.23.04-.33.3-.31.31.02.62,0,.92,0,.92,0,1.48-.56,1.48-1.47,0-1.34,0-2.68,0-4.03s0-2.66,0-3.99c0-1.48-1.15-2.67-2.63-2.68-2.75-.02-5.49-.02-8.24,0-1.46.01-2.63,1.18-2.64,2.64-.02,2.72-.01,5.44,0,8.16,0,.77.6,1.34,1.37,1.36Z"/>
  <path class="cls-1" d="m17.48,13.45c2.64,0,4.74-2.07,4.75-4.71.01-2.63-2.1-4.75-4.72-4.75-2.65,0-4.74,2.07-4.74,4.72,0,2.65,2.06,4.74,4.71,4.74Z"/>
</svg>