<?xml version="1.0" encoding="UTF-8"?>
<svg id="Capa_1" data-name="Capa 1" xmlns="http://www.w3.org/2000/svg" viewBox="0 0 1000 650">
  <defs>
    <style>
      .cls-1 {
        fill: #faf8f2;
        stroke-width: 0px;
      }
    </style>
  </defs>
  <path class="cls-1" d="m366.58,136.66l-.8.25-.52.32-4.02,2.96-4.96-1.18-5.38.33-5.4-1.57-1.35.44-.72,2.2-.87,3.28-3.28.9-1.93.41-1.72.98-3.33,1.59-3.47-1.52-1.48-.84-1.62.18-5.33-.27-4.22-3.12-2.18-1.46-2.53.72-1.58.53-1.57-.25-5.87-.83-4.93,3.19-2.69,1.3-2.84-.08-1.3-1.73.61-2.37.21-.74-.36-.54-1.87-.72-.4-1.8,1.61-2.83,2.5-2.12,1.33-.58,1.2-.83.62-2.6-2.3-1.36-2.2-.84-.56-2.18-.91-2.14-1.94.17-9.82,2.62-10.1.77-2.16.84-1.73,1.49-3.45,4.01-4.66,2.54-3.49-.33.03-3.43.55-3.09-.29-3.07-.33-1.33.28-1.13,3.7-4.6,4.11-4.22.84-.34.87-.3,1.65-.93.51-1.57-1.28-.81-1.67.34-2.79.3-1.66-1.91.87-2.53,2.56-1.03,2.98-1.39,1.84-2.75-2.38-.23-2.21.57-2.57-.29-1.8-1.68-.02-2.83,1.81-1.93,2.03-1.78.35-2.53.48-1.53,1.3-1.03,1.1-1.67-.77-1.8-1.44-.54-1.08,1.2-.3.31-.25.13-3.9.36c-6.53,8.92-7.86,1.74-6.98-4.92l3.91-4.76,1.41-.77-.13-1.51-2-1.5-2.4.61-1.43,1.5-1.99-.46-.97-2.1,1.3-1.91.55-1.09-.8-.97-1-1.29-.45-1.58.62-1.44-.61-1.24-2.11-.16-2,1.08-1.01,1.16-1.29.25-.76-1.52.31-1.84.3-1.33.64-1,1.45-2.25-1.12-2.37-.1-1.27.72-.93,4.06-2.47,3.83-2.36-.92-.5-.89.18-1.28.06-.8-.94.04-1.27.83-.97.81-.58.76-.21,6.16-.36,5.76-2.61-.73-2.71,2.66-1.18,3.27-1.33,1.66-3.33,1.38,3.29,2.46,2.09,3.45.3,3.51-.42,4.76-.65,4.38-2.11,2.84-1.04,1.4,3.79,2.7-3.8,3.56,1.41,2.86-.89,2.37-1.94-.37-.56-.6-.32-1.1.19-1.03.08-1.85-.35-1.39-1.03.65-1.25,1.14-1.17-1.08-.44-1.16.31-.72.15-.59-.34-.26-1.54.75-1.12.6-2.32,1.67-1.29,1.82-.18,1.41-.95,3.52-2.22,3.78-1.79,3.76-2.61,3.68-3.01,3.54-1.43,2.05,3.11.59.88.98-.2,1.89-1.13,1.9-1.12,1.67-1.68,1.77-.34,2.22,1.75.48,3.05.11,1.19.51,1.53,1.65-2.35,2.55-1.19,2.58.94,1.92,1.83,1.15.86,1.31.73,3.03,2.19,1.74,3.12,2.04,3.81,4.3.71,9.98-.32,9.92.5,8.72,1.35,8.73.52,11.18-.32,11.16.47,2.47-.27,2.21-1.32,4.45-2.63s3.84,3.4,3.91,3.45c7.27,6.43,22.51,5.9,32.46,9.72,19.91,7.66,42.27,8.74,62.86,3.2,2.54-.68,4.98,1.13,5.34,3.74.01.08.02.15.03.23,3.44-4.25,9.26-6.42,14.64-5.47,2.54.45,4.55,4.76,1.97,4.72,8.11,1.34,16.03,3.8,23.47,7.29,2.72-7.6,13.59-7.95,21.03-4.82,14.95,6.3,22.57,9.14,37.69,4.5l1.07-1.28.72-1.39,2.45-1.49,2.34,1.47,1.7,2.01,1.41,2.03,2.68,3.05,3.91.92,2.17-.04,1.7-1.12,2.64-1.8,3.27.31,1.83,2.28-.14,2.8-.45,4.17-1.8,3.83-.64,2.25,1.41,1.87,1.88.11.88-1.7.68-.87.69-.86.82-.98,1.22-.06,1.04.99-.07,1.45.17,3.37,3.11,1.29,6.77,1.62,6.51,2.48,3.08.32,2.99-.86,4.29-.28,2.22,3.63,1.1,2.28,1.73,1.88,6.88,3.51,7.46.87,3.69-.57,3.93.07,4.72,2.12,3.18,3.64,3.54,3.18,4.45-1.34,3.53-1.54,3.62-1.37,1.94-.13,1.51.81,2.92,1.85,2.5-2.3.75-.47.85.38,3.37,1.64,3.72-.53,2.56-.19h2.58s2.03-.47,2.03-.47v-2.11s-1.19-3.87-1.19-3.87l1.3-3.29,4.11-1.01,4.36,1.2,5.66,2.15,5.98.74,2.33.29,1.71,1.14,3.86,2.64,4.51-.66,4.55.52,2.87,3.3,1.69,4.27.26,4.79.59,3.64,2.68,2.97,2.97.25,2.63-1.64,6.69-1.85,6.59,1.76,2.73.17,2.17-1.28,1.72-.9,1.57.22-.09,1.55-1.56.93-.55,2.42,1.48,1.94,2.36,1.54,2.67-1.17,1.69-1.95,2.22-1.66,7.78-.89,6.62,3.46,5.69,1.93,5.74.03.96-.39.67-.85,4.11-5.17,5.99-2.66,5.6-1.98,5.92,2.23,1.94.42,2.37-.09.6,4.53,4.69,2.11,2.52,1.27.14,2.8-1.99,2.82-3.35-.03-2.34-1.02-2.25.8-.74,2.73,1.3,2.63,2.14,3.14,2.63,2.83,2.36,7.41-2.68,7.23-5.06,5.43-5.21,5.19-2.01,1.5-2.2,1.34-3.15,1.72-2.44,2.77-1.36,1.67-2.05.95-10.07,4.34-9.09,6.13-6.03,4.96-3.97,6.79-3.17,3.68-4.75,1.68-13.26,3.67-13.09,4.22-6.94,2.07-6.32,3.15-5.13,2.75-5.44,1.61-5.99,3.19-4.59,5-3.01,4.15-3.14,4.09-1.03,2.6,2.51,1.45,1.76.48,1.01,1.44.63.88.87.63,1.58-.15.98.81-.76,2.06-1.91,1.14-5.02,1.97-5.27,1.33-2.09.61-1.6,1.96-4.3,8.95-4.96,8.49-4.07,7.03-5.44,6.05-1.98,1.99-.96,2.56-1.87,4.38-3.6,3.01-.95.64-.65.82-5.53,9.01-5.44,9.04-.08.17-.06.17-3.57,9.01-4.55,8.56-.74,3.43.53,3.38,2.21,6.2,2.5,6.07,1.25,4.81.89,4.83,5.43,9.22,9.02,5.69,5.89,3.46,4.56,5.04.06,1.34-1.05,1.1-3.62,2.59-2.05,4.06-.89.82-1.59-.26-3.92.08-1.41,3.64-.97,2.15-2.11.97-5.38,1.85-5.42,1.74-3.05,1.61-1.63,2.67-1.64,3.67-3.35,2.02-3.11,2.97.27,4.25-.11,2.33-1.55,1.18-4.96,4.25-.87,6.32-.59,3.53-1.88,3.06-1.49,1.97-.61,2.58-.2,3.56-2.75,2.8-1.74,2.44-.85,3.65,1.54,2.6,2.93,1.96,2.08.72,1.09,1.77-1.45,1.76-2.34.38-3.89.89-3.79,1.39-1.89.33-1.84-1.02-1.16-.88-1.43-.34-12.54,1.27-11.7,4.66-.52.27-.38.34-6.33,5.98-6.77,4.88-5.78,5.49-2.46,7.72-.27,2.08-1.38,1.88-1.62,2.24-.71,2.62-1.04,4.85-3.83,3.16-.53.46-.28.71-2.64,5.34-4.19,4.24-3.61,2.52-3.81-2.58-2.19-2.69-2.78-2.1-2.96-.97-2.95.74-1.39.41-1.37-.3h-5.8s-3.89,4.55-3.89,4.55l-3.93,4.59-4.67.92-3.63-1.17-3.35-1.7-2.52-1.12-2.63-.25-6.09.04-6.09-.06-6.2.22-5.98,1.75-6.27.6-5.97-2.17-1.26-.79-1.36-.3-6.95.09-6.74-.61-8.36-.02-8.26,1.22-5.97.65-6.02-.66-2.39.37-1.92,1.66-5.79,6.16-6.51,5.42-4.38,1.49-4.77-1-2.6-.85-2.38.22-9.38,3.42-9.33,3.46-.5.3-.35.39-4.57,6.47-4.7,6.36-1.21,1.86-2.37.13-2.66.38-.67,2.59.61,3.87-1.82,3.09-5.04,1.16-4.91-1.38-4.79-2.29-4.66-2.51-1.83-1.22-1.58-1.52-3.55-3.4-4.72-1.32-1.54-.29-.99-.94-4.81-8.1-5-7.97-1.16-2.71-1.08-2.74-.62-3.21,3.05-1.44,1.42-.66-.75-1.47-2.73-2.07-3.38-.94-4.02-1.45-1.87-5.7,1.15-2.92,2.98-1.12,1.02-.39.99-.35-6.77-9.27-7.74-8.49-4.63-3.59-5.03-3.01-4.37-2.32-4.28-2.52-4.65-2.41-5.31-.82-6.66-.08-6.63-.8-1.94,1.29-1.83-.38-1.76-4.38-.27-4.8.31-7.77-2.8-7.24-.31-1.25.57-1.1,2.45-4.01,1.49-4.48,2.43-4.2,3.86-2.96,4.83-5.89,2.41-7.11,1.35-2.2,2.24.17,1.99.32,1.52-1.52,1.78-.95,2.03.87,3.45.47,1.98-2.64.47-1.31,1.1-.85,1.25-1.21v-1.85s-1.33-3.89-1.33-3.89l-4.01.86-3.1.33-2.05-2.23-3.99-9.05-5.2-8.39-.39-3.61,1.48-3.25,1.79-3.81.32-4.39.91-3.11,2.76-2.42,4.68-3.84,5.12-3.2.78-.62-.02-.8-.34-4.58,3.04-3.35,1.75-3.09-.59-3.54-2.07-2.1-2.78-.2-2.84.1-1.15-2.55-.64-1.51-1.37-.9-2.07-1.82-.75-2.57-.75-4.24-2.57-3.51-.89-2,.53-2.16.32-2.86-2.23-1.63-1.71-1.22-.05-2.17-.17-1.99-1.35-1.49-2.3-3.1-1.79-3.37-.39-.83.23-.84.87-.53,1.08.22,5.77,1.32,6-.6,3.91-.05,4.03.72,5.76-.42,2.41-5.19.98-2.71,1.46-2.52,3.86-8.11-.57-9.03-1.04-2.03-1.86-1.46-1.82-2.53-.45-3.22.6-1.89,1.97-1.22,1.18-.56,1.23-.33,3.49-1.37,2.62-2.86,1.46-3.76-.46-3.79-.18-2.86,1.53-2.53,1.43-2.06-.79-2.41-.73-1.41.12-1.35,1.02-5.07-.91-5.07-.34-3.4,1.25-3.32.22-1.07-.55-.96-2.22-5.19-2.16-5.24-.32-1.44,1.63-.46,5.24-.49,2.21-5.01,1.49-1.65,1.63-1.19,5.23-4.63,6.59-2.25,1.78-.91,1.58-1.28,2.95-3.23,3.51-2.69,1.1-1.09.66-1.61,1.77-4,2.89-3.26,1.39-2.61-1.2-2.87-5.43-4.44-7.03-.19-4.13-1.91.07-5.52,1.07-6.18-.45-6.02-.52-1.22-1.5.02-1.61.31-1.64.12-4.44-.55-.31-4.44Z"/>
  <g>
    <path class="cls-1" d="m857.02,387.3c-.25-.21-.77-.39-.5-.82.22-.35.68-.27,1.05-.08-.03-.21.03-.41-.05-.59.15-.62.74-.89,1.08-1.35.67-.79,1.28-1.62,2.04-2.33.24-.23.48-.48.81-.58.4-.09.72-.38,1.14-.41.62.2,1.06-.15,1.44-.52.41-.4.88-.61,1.47-.69-.19-.17-.43-.27-.46-.54.09-.48.47-.68.85-.88.79-.09,1.15-.76,1.66-1.25.1-.02-.03-.03.07-.03,1.57.1,2.92-.55,4.25-1.26.05,0,.1-.02.15-.01,1,.15,1,.15,1.25-.82.06-.04.13-.06.2-.07.87.08,1.57-.16,2.03-.96.17-.29.49-.45.73-.69.5-.32,1.1-.27,1.64-.43.25-.06.51-.06.76-.06,1.14-.08,2.28-.18,3.38-.54.63-.15,1.26-.29,1.88-.46.55-.15,1.07-.4,1.6-.61.39-.12.76-.31,1.13-.48.39-.1.73-.38,1.17-.31.09.06-.02-.03.07.03.1.06.18.15.29.19-.08-.08-.2-.14-.15-.28.11-.21.31-.31.52-.4.14-.05.29-.06.44-.04.52.33.94-.23,1.44-.17-.03-.11-.19-.1-.21-.22,0-.13.09-.19.21-.18.43-.17.66.02.81.4-.21.6.08,1.04.46,1.45-.26.41-.74.49-1.11.73-.43.2-.9.33-1.35.49-.52.18-.94.49-1.23.96-.11.15-.23.28-.35.4-.16.15-.32.29-.51.39-.27.14-.54.14-.81.03-.26-.11-.45-.04-.52.25-.05.12-.05.25-.06.38q-.07,1.55,1.46,1.79c.63.18,1.21-.05,1.79-.25.34-.1.67-.22,1.04-.21l1.46.53c.06-.32.2-.57.56-.23.16.36-.09.74.05,1.1.01.11,0,.22-.02.33-.08.24-.2.46-.33.69-.1.15-.22.28-.36.4-.25.21-.55.33-.84.49-.2.1-.4.18-.63.18-.15-.02-.28-.06-.34-.22l-.23.21c-.04.15-.15.23-.29.29-.16.06-.34.09-.5.15-.07.03-.13.05-.2.07-.36.13-.57.4-.68.75-.29,1.34.18,2.5.9,3.59.37.47.78.9,1.26,1.26.2.13.41.23.61.37.17.12.35.21.53.3.13.06.26.12.39.19.7.43,1.49.58,2.29.67.38,0,.77-.01,1.15,0,.4,0,.79,0,1.19,0,.83-.06,1.68.15,2.49-.16.41-.17.76-.43,1.05-.77.35-.41.78-.74,1.08-1.19.09-.12.2-.24.34-.31.63-.29,1.26-.55,1.88.03l.44.09c.59,0,1.02.36,1.49.62.95.54,1.77,1.3,2.87,1.56.08.01.15.03.22.06.34.12.69.06,1.03.09.16.01.31.04.45.14.09.09.12.19.1.31-.38.47-.41.98-.18,1.53.03.07.04.14.04.21-.4.57-.57,1.19-.41,1.89.16.8.52,1.6,0,2.39-.33.82-.6,1.68-1.13,2.41-.33.38-.74.64-1.2.84-.29.12-.63.16-.87.39-.76.77-.89,1.68-.58,2.67.12.39.21.76-.14,1.09-.07.08-.15.16-.23.23-.56.54-1.1,1.1-1.7,1.59-.43.26-.62.75-1.01,1.06-.06.04-.13.07-.2.09-.28.06-.44,0-.37-.32-.28.52-.6,1.03-.61,1.66-1.12,1.55-1.85,3.31-2.66,5.03-.1.64-.21,1.29-.27,1.94-.16.77-.23,1.56-.34,2.34-.02.07-.06.14-.12.2-.88-.25-1.11.3-1.26,1-.09.4-.26.79-.34,1.2-.1.33-.13.68-.36.96-.16.18-.33.34-.59.35l-.79,1.04c-.09.18-.21.32-.42.36-.25.03-.39-.24-.64-.21-.02.19.27.33.09.54-.05.06-.11.09-.17.11-.27-.05-.46-.03-.35.33-.27.53-.88.65-1.26,1.01-.62.59-1.31,1.1-2.11,1.4-.49.19-.96.42-1.35.76-.46.31-.88.68-1.28,1.07-.6.5-1.24.98-1.64,1.68-.11.19-.22.38-.39.52-.36.24-.67.57-1.13.62-.15,0-.28-.06-.41-.15-.41-.41-.69-.92-1.01-1.4-.21-.41-.47-.8-.77-1.15-.27-.32-.63-.52-1-.7-.61-.29-1.05-.73-1.2-1.41-.09-.34-.18-.67-.22-1.01-.03-.26-.05-.57-.29-.69-.75-.35-1.35-.94-2.12-1.26-.49-.2-.96.03-1.42.21-.62.25-1.28.17-1.92.19-.13,0-.35,0-.48,0-.73-.04-1.44-.21-2.17-.16-.83-.09-1.67-.09-2.47-.34-.4-.21-.87-.29-1.2-.63-.08-.68.27-1.31.24-1.99l-.56-1.04c-.26.09-.42-.14-.56-.32-.21-.26-.47-.48-.65-.77-.32-.51-.76-.82-1.33-.97-.24-.45-.26-.97-.4-1.46-.03-.33-.21-.56-.49-.74-.22-.14-.43-.29-.4-.6.08-.33.04-.68.13-1.02.1-.28.23-.54.32-.82.1-.23.22-.45.32-.67.06-.13.12-.25.17-.39.11-.81-.27-1.43-.76-2.01-.2-.23-.44-.43-.66-.65-1.05-1.14-2.36-1.85-3.81-2.35-.65-.23-1.23-.06-1.81.19-.62.27-1.22.57-1.81.91-.08.06-.17.13-.25.19-.25.19-.54.32-.81.47-.39.2-.8.37-1.17.61-.19.14-.35.31-.5.48-.24.28-.45.58-.57.93-.12.33-.22.66-.33,1-.06.17-.1.35-.14.52-.07.22-.17.42-.4.52-.22.04-.49.02-.67.08-.2.07.08-.61-.18-.1-.09.17-.28.23-.46.27-.62.11-.9.38-.49,1,.08.12.07.24-.06.34-.46.25-.94.33-1.44.15-.32-.24-.45-.57-.48-.95.04-.47.14-.92-.1-1.4-.13-.25-.03-.65.07-.98.12-.41.08-.82-.17-1.18-.05-.07-.04.12-.11.15-.06.05-.12.07-.19.06-.19-.13-.34-.32-.56-.41-.09-.06-.15-.14-.18-.25-.02-.22-.07-.41-.35-.35-.31-.03-.47.2-.67.36-.06.04-.13.06-.2.08-.34-.15-.67-.32-1.04-.38-.23-.11-.44-.02-.64.08-.1.03-.2.04-.31.03-.63-.18-1.16.02-1.65.41-.12,0-.22-.03-.31-.09-.06-.05-.1-.1-.14-.17-.11-.27-.21-.54-.34-.8-.14-.69-.78-.97-1.2-1.42-.65-1.09-.42-2.28-.43-3.45.09-.41.22-.8.38-1.18.08-.14.2-.24.36-.29.2-.06.41-.08.6-.08.69,0,1.05-.31,1.1-1,.12-.21.32-.31.54-.36.65.15,1.08-.32,1.6-.54.32-.14-.04-.36.08-.51.25-.43.7-.46,1.12-.57.15-.02.31-.01.46.02.69.32.95-.24,1.29-.63.06-.04.13-.07.21-.07q.84-.08.65-.88c.04-.24.18-.41.39-.51.13-.03.26.01.38.05.48.15.7-.02.63-.53-.03-.21-.03-.42,0-.63.12-.57.56-.89,1-1.19.4-.25.8-.48,1.28-.52,1.05-.08,1.94-.56,2.78-1.14.27.03.45.4.78.18l.08.06c-.06-.26-.47-.31-.4-.65.09-.26.22-.47.51-.54.43.18.63-.24.94-.37.55-.22-.14-.56.07-.81.07-.35.26-.63.54-.86.39-.26.61.06.88.24l.48.24Z"/>
    <path class="cls-1" d="m931.93,366.18c.92-.11-.32-.66.17-.86-.44-.15-.12-.39-.07-.59.05-.19.18-.52.12-.56-.2-.15-.47-.15-.71,0,0-.16-.01-.31-.02-.47.06-.2.12-.41.19-.61.05-.06.1-.11.15-.17.3-.21.47.05.67.18.2.13.35.53.62.26.26-.25-.11-.44-.23-.65-.1-.18-.24-.35-.13-.57.36-.11.73-.22,1.09-.34.79-.55,1.76-.47,2.63-.76.35-.05.66.07.98.17.62.35,1.26.52,1.96.27.61-.02,1.21-.14,1.81-.19,1.88-.21,3.76-.43,5.67-.27.58.05,1.1-.28,1.64-.44.85.08,1.41.71,2.05,1.14.64.43,1.24.92,1.63,1.63.2.4.54.48.94.44,2.54,1.97,5.21,3.78,7.54,6.01.13.41-.18.46-.46.54.39.48.91.37,1.42.32.37.04.71.13.97.41.27.56.39,1.15.38,1.78-.03.09-.09.17-.16.25-.07.08-.23-.11-.15,0,.53.7-.08,1.42.09,2.14.07.31,0,.66.14.98.02,1.09-.05,2.18-.01,3.27.01.22,0,.45,0,.67,0,.6-.15,1.09-.81,1.26-.68.09-1.36.19-2.03.3-.52.1-1.01.06-1.44-.28-.09-.08-.17-.17-.22-.27-.17-.81-.97-.62-1.47-.91-.17-.1-.41-.05-.6-.15-.07-.04-.1-.1-.11-.18.2-.27.49-.43.62-.48-.56.61-1.28-.27-2.01-.08-.7-.12-1.15-.67-1.74-.97-.52-.39-1.08-.73-1.64-1.07-.42-.4-.93-.68-1.41-1-1.8-1.24-3.62-2.47-5.46-3.66-.4-.26-.83-.43-1.29-.56-.68-.32-1.39-.42-2.13-.36-.58.04-1.17-.08-1.75.07-.27.08-.55.06-.82.15-.48.16-.97.33-1.49.33-.25.05-.52.06-.76.15-.26.06-.53.08-.79.12-.52,0-.98-.24-1.46-.4-.39-.22-.98-.13-1.16-.7.05-.23.1-.46.15-.69-.12-.88-.13-1.75.26-2.58.61-.85.61-.85-.55-1.24-.31-.22-.89-.17-.81-.8"/>
    <path class="cls-1" d="m790.34,477.7c-.02.09-.04.19-.07.29-.21.42-.63.54-1.03.68-.48.35-.95.15-1.41-.05-.18-.25-.45-.22-.71-.22-.07,0-.13-.04-.19-.08-.23-.57-.69-.63-1.22-.54-.07-.03-.11-.09-.12-.17.07-.25.39-.31.42-.62-.73.17-1.47,0-2.21-.12-.74-.23-1.47-.53-2.27-.32-.19-.02-.34-.12-.53-.21-.1.18.07.34,0,.5-.34.54-.95.6-1.46.82-.73-.1-1.23-.55-1.69-1.07.06-.57.04-1.15.33-1.68.35-.64.36-1.23-.41-1.61-.1-.32-.08-.61.18-.86.4-.47,1.07-.08,1.49-.47.17-.12.31-.27.43-.44.08-.11.15-.23.21-.35.15-.24.27-.5.57-.61.08,0,.13.03.17.1.05.09,0,.21.06.28.06.08-.03.09,0,.02.03-.13-.01-.29-.11-.4.41-.37.55-.07.57.28.02.3.07.54.32.71-.22-.17-.39-.39-.27-.68.08-.2.26-.1.4-.03.7.77,1.38,1.56,1.8,2.53,0,.05.02.1,0,.15-.03.21-.16.46.23.46-.03.33.43.82-.28.94-.07-.07.02.03-.06-.04-.05-.05-.07-.13-.14-.16.06.05.09.11.15.16.48.16.97.02,1.45.09.52.39,1.11.47,1.74.46.69-.01,1.38-.07,2.07.06.08.04.15.09.21.15.16.07.32.17.49.2.73.09,1.08.46.94,1.21.09.21.12.42-.01.63"/>
    <path class="cls-1" d="m768.22,459.87c-.09-.03-.19-.06-.28-.09-.38-.11-.46-.44-.56-.76,0-.1,0-.2.08-.29.05-.05.17.01.15-.03-.11-.18-.46-1.36-.49-1.73h0c-.06-.2.34.26.16-.11-.06-.12-.06-.23.02-.34h0c.23.04.48-.31.69-.05-.06-.38-.3-.79-.4-1.25-.07-.42.17-.8.19-1.21-.07-.41-.67-.76-.16-1.24.05-.06.11-.1.17-.12.55.03,1.08-.21,1.65-.07.21.05.64.04.78-.33.14-.19.33-.3.54-.39.08-.03.15-.04.23-.06.23-.03.46-.03.7-.03.44.05.64-.12.53-.58-.09-.38-.09-.77-.21-1.15-.08-.36-.03-.75-.16-1.1-.09-.52-.04-1.05-.05-1.57,0-.21,0-.42.04-.63.11-.46.43-.8.8-1.01.94-.53,1.71-1.24,2.45-2,.07-.08.17-.11.27-.14.32.09.5.06.29-.33.02-.21.16-.32.35-.37.27-.05.51.03.75.12.27.1.52.07.71-.15.43-.49.92-.62,1.51-.29.11.06.25.03.38.04.25.04.48.19.75.14.17-.03.34-.11.18-.29-.32-.35-.02-.55.14-.8.77-.69,1.71-1.01,2.68-1.26.17-.06.37-.18.53-.13,1.04.31,1.77-.27,2.52-.82.61-.25,1.23-.17,1.7.22.62.52,1.32.7,2.07.77.84.07,1.47.46,1.92,1.16.07.16.08.32.05.49-.2.64.04,1.24.18,1.84.06.3.17.6.13.91-.1.71-.04,1.43.05,2.14-.11.11-.25.12-.39.12-.18-.02-.29.07-.32.24-.07.2-.2.36-.33.51-.31.35-.49.77-.59,1.22-.11.73-.22,1.46-.96,1.87-.16.1-.33.17-.52.2-.28-.01-.55-.02-.61.36-.07.13-.19.21-.32.26-.52.17-.78.56-.86,1.09-.18.36-.26.81-.74.93-.41-.1-.58.18-.66.49-.12.46-.41.71-.87.76-.2.03-.51.27-.57-.08-.06-.33.13-.62.57-.54-.44-.07-.66.21-.59.55.15.68-.13.91-.64.91.2-.06.53-.2.37.35-.37.46-.94.7-1.31,1.16-.2.15-.47.27-.64.08-.51-.61-.91-.26-1.33.09-1.16-.06-1.55.56-1.16,1.8.14.41-.12.73-.22,1.09-.05.14-.1.28-.15.43-.13.4-.27.79-.32,1.21-.02.1-.04.2-.07.3-.27,1.16-.42,1.22-1.47.55-.06-.05-.1-.11-.12-.18.26-.47-.18-.25-.33-.33-.47-.19-.76-.61-1.14-.92-.43-.35-.83-.59-1.4-.31-.2.1-.46.06-.69.02-.16-.04-.33-.07-.49-.03-.1.02-.21.01-.31-.02-.1-.05-.17-.12-.21-.22.02-.28-.1-.51-.25-.72-.03-.06-.04-.13-.04-.2-.13-.57-.4-.41-.69-.14-.06.04-.13.06-.2.08-.37.06-.74.1-1.07.29-.18.16-.22.41-.35.6-.53.55-.8.07-1.11-.28-.04-.27-.28-.26-.46-.33-.06-.03-.12-.07-.16-.13.1-.3,0-.39-.29-.26"/>
    <polygon class="cls-1" points="122.44 595.13 127.76 592.34 127.84 592.03 128.95 589.99 128.93 589.82 128.26 588.15 126.84 588.07 124.86 589.09 124.66 589.13 123.54 589.25 120.07 588.82 117.97 589.5 117.29 589.98 116.26 590.43 116.21 590.49 116.14 590.45 114.97 590.82 113.86 591.92 113.47 593.01 112.16 594.25 112.14 594.28 111.54 594.97 111.34 595.21 108.95 597.08 108.73 597.06 106.56 598.05 105.94 598.37 105.75 598.43 105.08 598.56 104.65 598.58 103.57 598.6 102.93 598.57 100 599.23 96.7 599.85 96.27 599.89 95.34 599.93 95.28 599.9 94.09 599.72 92.18 599.42 90.73 600.12 89.81 600.49 89.4 600.57 88.75 600.99 88.71 601.17 88.76 601.76 89.66 602.65 89.81 602.72 90.42 603.32 90.48 603.5 90.69 603.7 91.09 604.39 91.14 604.52 92.16 606.54 92.25 608.02 92.45 608.67 93.51 610.18 93.72 610.31 94.72 611.92 94.77 612.13 94.97 612.57 94.97 612.57 97.07 615.15 97.55 615.8 98.16 616.85 98.97 618 99.68 620.3 99.92 620.72 100.36 620.92 102.93 620.32 104.4 619.6 106.37 619.03 108.48 618.28 110.23 616.2 111.15 614.93 112.19 613.46 112.22 613.44 113.44 612.34 113.7 611.49 114.3 609.27 114.34 609.13 115.18 606.95 115.23 606.76 115.81 605.64 116.23 604.81 116.9 603.75 116.89 602.09 116.8 601.62 118.18 599.22 120.93 596.63 121.4 596.16 122.44 595.13"/>
    <polygon class="cls-1" points="243.94 588.59 243.97 588.05 243.95 587.01 243.35 581.17 242.91 580.31 242.84 580.25 242.02 579.46 241.6 578.84 238 579.04 235.42 580.29 234.38 582.07 233.87 584.58 233.62 585.26 233.23 587.55 232.81 588.05 230.21 592.53 229.77 593.43 229.08 594.59 227.15 598.64 226.8 599.52 226.58 599.7 226.44 600.35 225.63 601.59 224.64 603.78 224.61 603.97 224.44 606.82 224.35 607.18 223.76 608.03 223.75 608.04 222.49 609.58 225.33 610.15 226.88 609.95 227.65 610.02 227.64 608.84 229.29 608.06 233.91 606.2 241.95 598.13 242.27 597.71 242.38 597.77 242.27 597.71 242.26 596.22 242.26 594.72 243.12 591.92 243.8 589.55 243.94 588.59"/>
    <polygon class="cls-1" points="165.95 624.22 166.19 623.14 166.23 620.38 165.9 619.05 164.41 615.32 163.93 613.66 164.56 611.46 163.6 610.43 162.72 610.85 162.73 611.26 162.9 611.92 162.86 612.34 159.92 612.35 158.52 611.93 155.61 612.1 152.16 611.22 151.09 611.05 150.45 611.04 149.35 611.27 149.29 611.26 148.89 614.72 146.98 617.64 146.01 618.45 144.84 619.23 143.75 619.87 143.57 621.67 143.36 624.41 143.54 625.47 144.23 626.94 144.63 627.83 144.67 627.96 144.68 627.96 145.24 629.12 146.15 629.78 146.96 630.41 147.44 631.26 148.74 632.12 150.88 633.85 151.09 633.89 153.03 634.05 153.89 634.31 157.18 633.54 160.53 632.29 162.06 631.92 162.91 631.46 165.91 627.85 166.16 627.19 165.63 626.36 165.95 624.22"/>
    <polygon class="cls-1" points="248.04 571 248.04 571 248.7 570.17 251.09 569.51 251.29 569.57 252.58 569.58 253.21 569.34 255.15 568.03 255.77 567.61 257.73 567.39 259.21 566.25 259.88 565.87 260.46 565.45 260.66 565.23 261.57 563.74 261.62 563.54 262.03 560.94 262.16 560.71 262.29 559.46 262.04 558.6 262.03 557.7 262.18 557.28 263.12 556.5 263.27 556.42 263.72 555.12 263.8 554.5 263.51 552.82 262.22 551.76 262.22 551.76 260.22 552.68 259.69 553.91 259.65 554.08 259.25 555.16 258.56 557.09 256.53 557.72 254.95 557.29 254.47 557.52 253.65 557.94 253.44 557.96 251.07 559.01 250.8 559.45 248.49 560.33 247.52 560.35 246.41 560.76 246.28 560.88 246.53 560.96 244.66 562.7 244.49 562.93 243.61 564.21 243.15 565.47 243.15 567.69 243.19 567.77 243.14 567.84 243.1 568.7 241.61 570.6 241.17 571.06 242.26 572.99 244.2 573.04 245.3 573.2 245.91 573.46 246.54 573.39 248.04 571"/>
    <polygon class="cls-1" points="38.29 587.79 39.15 589.48 40.43 592.3 40.92 594.17 42.39 595.48 43.09 595.58 43.26 595.56 44.46 594.2 45.38 592.32 45.69 591.44 47.45 588.15 47.49 587.97 47.5 586.59 47.21 585.44 46.96 584.77 47.23 582.2 47.87 581.26 48.51 580.55 48.85 579.43 47.65 578.07 47.23 576.91 46.07 574.36 45.6 573.93 44.12 573.47 44.12 573.47 43.33 573.67 39.37 573.45 38.92 573.4 38.29 573.46 38.02 573.7 37.55 573.9 37.43 573.9 36.94 574.03 36.57 574.56 36.58 574.56 37.3 575.5 34.61 577.63 33.81 577.58 33.85 577.39 33.73 577.43 33.19 578.12 33.41 579.16 33.44 579.19 34.78 580.34 36.6 584.27 36.85 584.8 38.29 587.79"/>
    <polygon class="cls-1" points="73.8 609.98 70.09 611.98 66.74 615.32 66.64 617.19 66.8 618.28 70.18 621.31 72.23 621.11 72.75 621.05 75.29 620.71 75.71 620.5 77.62 618.98 78.63 617.85 78.74 617.72 79.7 616.41 79.75 616.16 79.74 614.37 79.68 614.11 78.07 612.33 77.39 612.03 77.09 611.88 76.31 611.38 75.04 610.51 73.8 609.98"/>
    <path class="cls-1" d="m40.3,635.23c-.08-.42-4.29.17-5.49-.51-1.2-.69-1.03-3-.34-3.26.69-.26.69-1.29,1.2-1.2.51.08,2.31,1.03,3.09.94.77-.09,3.26-1.8,3.34-2.49.09-.69.03-2.66,1.82-2.74,1.79-.08,4.27.86,4.19,2.23-.09,1.37-1.37,2.06-1.46,2.83-.09.77.09,2.4-.86,2.4s-2.46.64-1.87,1.82c.58,1.18.53,2.81,0,2.98-.53.17-3.45-2.06-3.62-3"/>
  </g>
</svg>